<svg width="197" height="197" viewBox="0 0 197 197" fill="none" xmlns="http://www.w3.org/2000/svg">
<path d="M124.9 34.6395L118.195 19.5297C117.083 17.0231 113.846 16.3352 111.81 18.1726L99.5394 29.2489C99.2598 29.5013 98.8331 29.4957 98.5602 29.2361L86.5833 17.8424C84.5964 15.9523 81.343 16.5553 80.1655 19.0318L73.0672 33.961C72.9055 34.3011 72.5091 34.4592 72.1577 34.3238L56.7322 28.3808C54.1733 27.3949 51.3983 29.197 51.2581 31.9357L50.4133 48.4448C50.394 48.8209 50.0883 49.1187 49.7118 49.1281L33.1862 49.5405C30.4448 49.6089 28.5707 52.3358 29.4893 54.9196L35.0265 70.4954C35.1526 70.8503 34.9842 71.2424 34.64 71.3951L19.5301 78.1002C17.0236 79.2125 16.3356 82.449 18.1731 84.4846L29.2494 96.7558C29.5017 97.0353 29.4961 97.462 29.2366 97.7349L17.8428 109.712C15.9527 111.699 16.5557 114.952 19.0323 116.13L33.9614 123.228C34.3015 123.39 34.4597 123.786 34.3243 124.137L28.3812 139.563C27.3953 142.122 29.1974 144.897 31.9361 145.037L48.4453 145.882C48.8214 145.901 49.1192 146.207 49.1286 146.583L49.5409 163.109C49.6094 165.85 52.3363 167.724 54.9201 166.806L70.4959 161.269C70.8507 161.142 71.2428 161.311 71.3956 161.655L78.1006 176.765C79.2129 179.272 82.4494 179.959 84.4851 178.122L96.7562 167.046C97.0358 166.793 97.4625 166.799 97.7353 167.059L109.712 178.452C111.699 180.342 114.953 179.739 116.13 177.263L123.228 162.334C123.39 161.994 123.787 161.835 124.138 161.971L139.563 167.914C142.122 168.9 144.897 167.098 145.037 164.359L145.882 147.85C145.902 147.474 146.207 147.176 146.584 147.167L163.109 146.754C165.851 146.686 167.725 143.959 166.806 141.375L161.269 125.799C161.143 125.444 161.311 125.052 161.656 124.9L176.765 118.194C179.272 117.082 179.96 113.846 178.123 111.81L167.046 99.5389C166.794 99.2594 166.799 98.8326 167.059 98.5598L178.453 86.5828C180.343 84.596 179.74 81.3426 177.263 80.165L162.334 73.0667C161.994 72.905 161.836 72.5086 161.971 72.1572L167.914 56.7317C168.9 54.1728 167.098 51.3978 164.359 51.2577L147.85 50.4128C147.474 50.3936 147.176 50.0879 147.167 49.7114L146.755 33.1858C146.686 30.4444 143.959 28.5702 141.375 29.4888L125.8 35.0261C125.445 35.1522 125.053 34.9837 124.9 34.6395Z" fill="#F06100" stroke="#FEBE33" stroke-width="3.31003"/>
<path d="M66.8213 98.3076L71.0951 99.216L70.1206 103.801L55.6675 100.728L56.642 96.1439L60.9546 97.0606L63.4486 85.3272L59.136 84.4105L60.0114 80.2921C61.1769 80.5399 62.1259 80.6604 62.7971 80.5594C63.4683 80.4584 63.9229 80.2302 64.2551 79.8135C64.5873 79.3968 64.836 78.8 65.0012 78.0229L65.6783 74.837L71.5451 76.084L66.8213 98.3076ZM94.8275 84.0784C95.9638 86.7564 96.1083 90.2794 95.1751 94.6697C94.5558 97.5837 93.5916 100.018 92.2744 102.012C90.9572 104.006 89.3976 105.421 87.5181 106.24C85.6385 107.058 83.5332 107.22 81.2797 106.741C79.2594 106.312 77.616 105.637 76.3659 104.641C75.0688 103.675 74.1791 102.511 73.6969 101.15C73.1676 99.819 73.0681 98.3766 73.3596 96.8142L78.7616 97.1909C78.5026 99.9378 79.5817 101.548 82.0294 102.068C85.3707 102.778 87.7078 100.189 89.1267 94.2775L88.3885 94.1206C87.7853 95.0482 86.9349 95.8014 85.7678 96.3248C84.6007 96.8483 83.1666 96.909 81.3794 96.5291C78.6597 95.951 76.7963 94.7834 75.7891 93.0262C74.7819 91.269 74.5591 89.0694 75.1372 86.3498C75.7731 83.3581 77.1705 81.1781 79.3599 79.8567C81.5105 78.5271 84.1787 78.2009 87.3258 78.8698C91.1333 79.6791 93.6441 81.431 94.8275 84.0784ZM87.6154 92.9817C88.5436 92.245 89.1964 91.0843 89.535 89.4913C89.9066 87.743 89.8071 86.3005 89.2754 85.1723C88.7354 84.083 87.7549 83.3466 86.3562 83.0493C84.9575 82.752 83.84 83.0424 82.9424 83.8262C82.0366 84.6489 81.3979 85.9344 81.018 87.7216C80.3078 91.0629 81.3125 93.0226 84.1099 93.6172C85.5086 93.9145 86.6873 93.7184 87.6154 92.9817ZM115.385 97.5442C116.392 99.3013 116.654 101.509 116.092 104.151C115.448 107.182 114.02 109.315 111.878 110.605C109.727 111.935 107.067 112.222 103.92 111.553C100.113 110.744 97.6017 108.992 96.482 106.236C95.3151 103.511 95.2259 99.9189 96.1756 95.4509C96.7867 92.5758 97.7426 90.1801 99.0822 88.272C100.383 86.3557 102.012 84.9964 103.93 84.1859C105.84 83.4143 107.946 83.2527 110.277 83.7482C113.424 84.4171 115.598 85.6508 116.808 87.4105C118.018 89.1701 118.382 91.2779 117.939 93.7421L112.484 93.2323C112.643 91.7229 112.455 90.5053 111.951 89.6267C111.439 88.787 110.551 88.192 109.268 87.9195C107.404 87.5231 105.854 88.1277 104.619 89.7332C103.384 91.3387 102.456 93.4154 101.855 96.0491L102.594 96.206C103.103 95.3396 103.975 94.6723 105.134 94.1877C106.293 93.7031 107.805 93.659 109.67 94.0554C112.428 94.6417 114.331 95.8176 115.385 97.5442ZM108.369 106.286C109.259 105.541 109.881 104.333 110.228 102.702C110.55 101.186 110.456 99.9076 109.977 98.9125C109.46 97.9091 108.51 97.2199 107.111 96.9226C105.674 96.617 104.487 96.852 103.52 97.5804C102.553 98.3089 101.947 99.439 101.633 100.915C101.286 102.547 101.372 103.865 101.959 104.924C102.507 105.974 103.504 106.633 104.98 106.946C106.34 107.236 107.48 107.031 108.369 106.286ZM137.568 100.879C138.597 102.722 138.809 105.163 138.173 108.154C137.463 111.496 135.947 113.853 133.719 115.167C131.443 116.51 128.697 116.82 125.434 116.126C123.219 115.656 121.437 114.871 120.048 113.763C118.659 112.656 117.716 111.359 117.228 109.834C116.732 108.348 116.674 106.711 117.037 105.002L122.928 105.563C122.714 107.142 122.916 108.485 123.511 109.505C124.098 110.563 125.095 111.222 126.494 111.519C127.97 111.833 129.196 111.606 130.188 110.761C131.141 109.908 131.827 108.592 132.215 106.766C132.942 103.347 131.915 101.301 129.195 100.723C128.34 100.542 127.561 100.579 126.779 100.819C125.997 101.059 125.354 101.409 124.811 101.862L119.29 98.4149L123.555 87.139L140.533 90.7479L139.631 95.1853L127.353 92.5757L125.222 98.7823L125.78 99.0228C127.6 97.3386 129.757 96.7413 132.321 97.2864C134.808 97.8149 136.538 99.0355 137.568 100.879Z" fill="black"/>
</svg>
