<svg width="44" height="45" viewBox="0 0 44 45" fill="none" xmlns="http://www.w3.org/2000/svg">
<path d="M22.058 0C10.0016 0 0.187962 9.85257 0.182847 21.9622C0.181569 25.8332 1.18915 29.6116 3.10329 32.942L0 44.325L11.5961 41.2706C14.7915 43.0206 18.3883 43.9424 22.0491 43.9437H22.058C34.1132 43.9437 43.9268 34.0898 43.932 21.9802C43.9345 16.1115 41.6611 10.5934 37.531 6.44256C33.401 2.29046 27.9092 0.00256778 22.058 0ZM22.058 40.2345H22.0504C18.7885 40.2345 15.5881 39.3525 12.7968 37.6899L12.1331 37.2944L5.25271 39.1073L7.08885 32.3707L6.65667 31.68C4.83714 28.7733 3.8756 25.4133 3.87688 21.9648C3.88071 11.8991 12.0372 3.71044 22.0657 3.71044C26.922 3.71173 31.4868 5.61317 34.9187 9.06426C38.3519 12.5141 40.2405 17.1014 40.2392 21.9789C40.2354 32.0446 32.0788 40.2345 22.058 40.2345ZM32.0303 26.5624C31.4843 26.2876 28.7965 24.9601 28.2953 24.7765C27.7941 24.5929 27.4297 24.5018 27.0652 25.0513C26.7008 25.6008 25.6536 26.8372 25.3352 27.2031C25.0168 27.5703 24.6972 27.6152 24.1512 27.3404C23.6052 27.0657 21.8432 26.4854 19.7565 24.616C18.1313 23.1614 17.0342 21.3639 16.7158 20.8144C16.3974 20.2649 16.6813 19.9683 16.9562 19.6949C17.2017 19.4496 17.5022 19.0542 17.7758 18.7332C18.0495 18.4123 18.1402 18.1837 18.3218 17.8165C18.5034 17.4506 18.4126 17.1297 18.2758 16.8549C18.139 16.5802 17.0457 13.8789 16.5905 12.7798C16.1468 11.7104 15.6967 11.8542 15.3605 11.8375C15.0421 11.8208 14.6777 11.8182 14.3132 11.8182C13.9488 11.8182 13.3568 11.9556 12.8556 12.5051C12.3543 13.0546 10.9427 14.3821 10.9427 17.0834C10.9427 19.7847 12.9016 22.3949 13.174 22.7608C13.4476 23.1267 17.0278 28.6705 22.5107 31.047C23.8149 31.6119 24.8327 31.9496 25.6268 32.2025C26.9361 32.6198 28.1278 32.5607 29.0689 32.4195C30.1187 32.2616 32.3026 31.092 32.7578 29.8094C33.213 28.528 33.213 27.429 33.0762 27.1992C32.9394 26.9707 32.575 26.8333 32.029 26.5585L32.0303 26.5624Z" fill="#103928"/>
</svg>
