<svg width="99" height="99" viewBox="0 0 99 99" fill="none" xmlns="http://www.w3.org/2000/svg">
<rect width="99" height="99" rx="49.5" fill="#F06100"/>
<path d="M67.9859 62.5807L64.7776 63.3391C64.0581 63.5141 63.4943 64.0585 63.3387 64.778L62.6581 67.6363C62.2887 69.1919 60.3054 69.678 59.2748 68.453L53.4609 61.7641C52.9943 61.2196 53.247 60.3641 53.947 60.1891C57.3887 59.353 60.4804 57.428 62.7554 54.6863C63.1248 54.2391 63.7859 54.1807 64.1943 54.5891L68.5109 58.9057C69.9887 60.3835 69.4637 62.2307 67.9859 62.5807Z" fill="#FEBE33"/>
<path d="M31.9168 62.5807L35.1252 63.3391C35.8446 63.5141 36.4085 64.0585 36.564 64.778L37.2446 67.6363C37.614 69.1919 39.5974 69.678 40.6279 68.453L46.4418 61.7641C46.9085 61.2196 46.6557 60.3641 45.9557 60.1891C42.514 59.353 39.4224 57.428 37.1474 54.6863C36.7779 54.2391 36.1168 54.1807 35.7085 54.5891L31.3918 58.9057C29.914 60.3835 30.439 62.2307 31.9168 62.5807Z" fill="#FEBE33"/>
<path d="M50.0008 30.5557C42.4758 30.5557 36.3896 36.6418 36.3896 44.1668C36.3896 46.9862 37.2258 49.5723 38.6646 51.7307C40.7646 54.8418 44.0896 57.039 47.9591 57.6029C48.6202 57.7196 49.3008 57.7779 50.0008 57.7779C50.7008 57.7779 51.3813 57.7196 52.0424 57.6029C55.9119 57.039 59.2369 54.8418 61.3369 51.7307C62.7758 49.5723 63.6119 46.9862 63.6119 44.1668C63.6119 36.6418 57.5258 30.5557 50.0008 30.5557ZM55.9508 43.739L54.3369 45.3529C54.0646 45.6251 53.9091 46.1501 54.0063 46.539L54.473 48.5418C54.8424 50.1168 54.0063 50.739 52.6063 49.9029L50.6619 48.7557C50.3119 48.5418 49.7285 48.5418 49.3785 48.7557L47.4341 49.9029C46.0341 50.7196 45.198 50.1168 45.5674 48.5418L46.0341 46.539C46.1119 46.1696 45.9758 45.6251 45.7035 45.3529L44.0508 43.739C43.098 42.7862 43.4091 41.8334 44.7313 41.6196L46.8119 41.2696C47.1619 41.2112 47.5702 40.9001 47.7258 40.589L48.873 38.2946C49.4952 37.0501 50.5063 37.0501 51.1285 38.2946L52.2758 40.589C52.4313 40.9001 52.8396 41.2112 53.2091 41.2696L55.2897 41.6196C56.5924 41.8334 56.9035 42.7862 55.9508 43.739Z" fill="#FEBE33"/>
</svg>
