<svg width="61" height="60" viewBox="0 0 61 60" fill="none" xmlns="http://www.w3.org/2000/svg">
<g clip-path="url(#clip0_685_5205)">
<path fill-rule="evenodd" clip-rule="evenodd" d="M30.034 59.9985C13.5396 60.1097 -0.281759 46.5106 0.00436429 29.5122C0.277145 13.2802 13.4181 -0.129032 30.2846 -5.38265e-05C47.0932 0.128924 60.0192 13.8925 60.0355 29.997C60.0533 46.6515 46.2897 60.1482 30.034 59.9985ZM49.8492 27.0764C49.8121 25.4146 49.4 23.3554 48.7388 21.3525C47.9872 19.0739 46.9272 16.9717 45.123 15.3098C43.2328 13.5678 40.6058 13.2046 38.3568 14.441C36.4384 15.4936 35.2836 17.2207 34.3674 19.1272C33.1488 21.6668 32.5647 24.3768 32.3408 27.1684C32.2118 28.7798 32.406 30.3498 33.0806 31.8442C33.8426 33.5342 35.0523 34.8225 36.5481 35.8914C37.7312 36.7365 38.339 37.9136 38.3538 39.3961C38.3642 40.5005 38.425 41.605 38.4917 42.708C38.551 43.7057 38.5762 44.7138 38.7512 45.6938C38.9528 46.8234 40.1536 47.6685 41.2284 47.5795C42.4826 47.4757 43.4967 46.4484 43.556 45.2208C43.6449 43.3825 43.7576 41.5457 43.8124 39.7059C43.8658 37.9373 44.6159 36.6238 46.054 35.5757C48.761 33.6054 50.0597 30.9087 49.8492 27.0764ZM17.0665 20.3785C17.0665 21.9366 17.0784 23.4947 17.0621 25.0528C17.0532 25.9082 16.4083 26.6006 15.6493 26.6317C14.8724 26.6628 14.1742 26.0387 14.1697 25.1625C14.1653 23.895 14.2127 22.623 14.3269 21.3599C14.444 20.0597 14.6871 18.7714 14.8383 17.4728C14.9806 16.2393 14.0481 15.1082 12.8251 14.9733C11.7251 14.8517 10.6814 15.7664 10.5376 16.988C10.3626 18.4868 10.1151 19.9812 10.0454 21.4859C9.93567 23.8505 9.78446 26.2314 9.95198 28.5842C10.1788 31.776 11.7606 34.3007 14.4321 36.1094C15.716 36.9781 16.4557 38.1893 16.5551 39.7341C16.6751 41.5724 16.7285 43.4137 16.8086 45.2535C16.8501 46.1756 17.5365 47.1259 18.3785 47.4179C19.3407 47.75 20.2584 47.5083 20.9477 46.7597C21.4681 46.1948 21.6193 45.5055 21.646 44.7761C21.6949 43.427 21.7157 42.0764 21.7809 40.7274C21.8076 40.161 21.8654 39.5858 21.9973 39.0358C22.3027 37.7727 23.1329 36.8877 24.1974 36.2013C25.8874 35.1087 27.0408 33.5921 27.8325 31.7552C28.5589 30.0711 28.6256 28.2862 28.6123 26.5175C28.5945 24.313 28.4359 22.1071 28.2728 19.907C28.1913 18.8115 27.9956 17.7203 27.791 16.6381C27.6205 15.7353 26.7102 14.997 25.8326 14.9466C24.989 14.8991 24.1855 15.4951 23.7882 16.3416C23.3954 17.1777 23.6859 17.9842 23.7526 18.807C23.9246 20.9048 24.1055 23.0025 24.2063 25.1032C24.2256 25.4931 23.9602 25.9675 23.6889 26.2848C23.3286 26.7073 22.7875 26.7266 22.2716 26.5027C21.649 26.2329 21.4103 25.7066 21.4073 25.0751C21.3954 22.245 21.4043 19.4163 21.394 16.5862C21.394 16.2408 21.3539 15.8909 21.2813 15.5529C21.0278 14.3817 20.076 13.6197 19.0175 13.7161C17.8982 13.8184 17.0739 14.782 17.068 16.0125C17.0621 17.4683 17.068 18.9227 17.0665 20.3785Z" fill="#ED1C25"/>
<path fill-rule="evenodd" clip-rule="evenodd" d="M49.8495 27.0764C49.8125 25.4145 49.4003 23.3553 48.7392 21.3524C47.9875 19.0738 46.9275 16.9716 45.1233 15.3097C43.2331 13.5678 40.6061 13.2046 38.3572 14.441C36.4388 15.4936 35.2839 17.2207 34.3677 19.1272C33.1491 21.6667 32.565 24.3767 32.3412 27.1683C32.2122 28.7798 32.4064 30.3498 33.0809 31.8441C33.8429 33.5342 35.0527 34.8225 36.5485 35.8914C37.7315 36.7364 38.3394 37.9135 38.3542 39.396C38.3646 40.5005 38.4254 41.6049 38.4921 42.7079C38.5514 43.7057 38.5766 44.7138 38.7515 45.6937C38.9531 46.8234 40.154 47.6684 41.2288 47.5794C42.483 47.4757 43.497 46.4483 43.5563 45.2208C43.6453 43.3825 43.7579 41.5456 43.8128 39.7059C43.8662 37.9372 44.6163 36.6237 46.0543 35.5756C48.7614 33.6053 50.0601 30.9087 49.8495 27.0764Z" fill="white"/>
<path fill-rule="evenodd" clip-rule="evenodd" d="M17.0652 20.3801C17.0652 21.9382 17.0771 23.4963 17.0608 25.0544C17.0519 25.9098 16.407 26.6021 15.648 26.6333C14.8711 26.6644 14.1729 26.0403 14.1684 25.1641C14.164 23.8966 14.2114 22.6246 14.3256 21.3615C14.4427 20.0613 14.6858 18.773 14.837 17.4743C14.9793 16.2409 14.0469 15.1097 12.8238 14.9748C11.7238 14.8533 10.6801 15.768 10.5363 16.9896C10.3613 18.4884 10.1138 19.9827 10.0441 21.4875C9.93438 23.8521 9.78316 26.233 9.95069 28.5857C10.1775 31.7776 11.7593 34.3023 14.4308 36.1109C15.7147 36.9797 16.4544 38.1909 16.5538 39.7357C16.6739 41.574 16.7272 43.4152 16.8073 45.255C16.8488 46.1771 17.5352 47.1274 18.3773 47.4195C19.3394 47.7516 20.2571 47.5099 20.9464 46.7613C21.4668 46.1964 21.618 45.5071 21.6447 44.7777C21.6936 43.4286 21.7144 42.078 21.7796 40.7289C21.8063 40.1626 21.8641 39.5874 21.9961 39.0374C22.3014 37.7743 23.1317 36.8892 24.1961 36.2028C25.8861 35.1102 27.0395 33.5936 27.8312 31.7568C28.5576 30.0727 28.6243 28.2877 28.611 26.5191C28.5932 24.3146 28.4346 22.1087 28.2715 19.9086C28.19 18.813 27.9943 17.7219 27.7897 16.6397C27.6192 15.7368 26.7089 14.9986 25.8313 14.9481C24.9877 14.9007 24.1842 15.4967 23.7869 16.3432C23.3941 17.1793 23.6846 17.9858 23.7513 18.8086C23.9233 20.9063 24.1042 23.0041 24.205 25.1048C24.2243 25.4947 23.9589 25.9691 23.6876 26.2864C23.3273 26.7089 22.7862 26.7281 22.2703 26.5043C21.6477 26.2345 21.409 25.7082 21.406 25.0766C21.3942 22.2465 21.403 19.4179 21.3927 16.5878C21.3927 16.2424 21.3526 15.8925 21.28 15.5545C21.0265 14.3833 20.0747 13.6213 19.0162 13.7177C17.8969 13.82 17.0726 14.7836 17.0667 16.0141C17.0608 17.4699 17.0667 18.9257 17.0652 20.3815V20.3801Z" fill="white"/>
</g>
<defs>
<clipPath id="clip0_685_5205">
<rect width="60.0356" height="60" fill="white"/>
</clipPath>
</defs>
</svg>
