<svg width="24" height="24" viewBox="0 0 24 24" fill="none" xmlns="http://www.w3.org/2000/svg">
<path d="M19.69 8.06446C18.4821 3.79717 14.613 2.05023 11.3038 2.22366C11.3038 2.22366 11.3038 2.22366 11.2945 2.22415C7.99469 2.39708 4.31955 4.53002 3.56435 8.90019C2.72344 13.781 5.89146 17.7113 8.69969 20.1418C9.74053 21.0434 11.0368 21.4535 12.3081 21.3869C13.5795 21.3202 14.8258 20.7769 15.7574 19.7719C18.2961 17.0612 21.0365 12.8307 19.69 8.06446ZM11.8775 13.1701C10.251 13.2553 8.86386 12.0063 8.77861 10.3798C8.69337 8.75325 9.94235 7.36612 11.5689 7.28087C13.1954 7.19563 14.5825 8.44461 14.6678 10.0711C14.753 11.6977 13.5041 13.0848 11.8775 13.1701Z" fill="white"/>
</svg>
