<svg width="110" height="60" viewBox="0 0 110 60" fill="none" xmlns="http://www.w3.org/2000/svg">
<path d="M4.20409 56.1566C1.96633 54.5292 0.623664 52.21 0.216797 49.2806L4.69233 47.7345C5.01783 49.8095 5.87225 51.437 7.2556 52.5762C8.59826 53.7561 10.3071 54.3257 12.3821 54.3257C14.2537 54.3257 15.7591 53.9595 16.8577 53.2272C17.9562 52.4948 18.5258 51.4776 18.5258 50.135C18.5258 49.1585 18.2003 48.3448 17.6307 47.7752C17.0204 47.2055 16.2067 46.7987 15.1488 46.5139C14.091 46.2697 12.6262 46.0256 10.836 45.7815C7.66246 45.3746 5.13989 44.5609 3.2683 43.3403C1.39671 42.1604 0.501604 40.3295 0.501604 37.8069C0.501604 36.1388 0.949158 34.674 1.88495 33.4128C2.78006 32.1515 4.08203 31.175 5.75019 30.524C7.37766 29.873 9.28993 29.5068 11.487 29.5068C15.0674 29.5068 17.8341 30.2392 19.7464 31.7039C21.6587 33.1686 22.7572 35.325 23.0014 38.1731L18.6072 39.2309C18.241 37.3594 17.5493 35.9353 16.4915 34.9995C15.4336 34.0637 13.7248 33.5755 11.4056 33.5755C9.6968 33.5755 8.31345 33.901 7.2556 34.552C6.19774 35.203 5.66881 36.0981 5.66881 37.2373C5.66881 38.2138 5.99431 38.9461 6.68598 39.5158C7.33697 40.0854 8.23208 40.4922 9.33062 40.7364C10.4292 41.0212 11.9346 41.2653 13.8062 41.5094C15.7998 41.8349 17.5086 42.2418 18.892 42.73C20.2753 43.2589 21.4146 44.0727 22.3097 45.1712C23.2048 46.3104 23.6523 47.7752 23.6523 49.6467C23.6523 51.5183 23.1641 53.1051 22.1876 54.4478C21.2111 55.8311 19.8685 56.8483 18.1596 57.54C16.4508 58.2723 14.5385 58.5978 12.4228 58.5978C9.16787 58.5978 6.40118 57.7841 4.20409 56.1566Z" fill="#111111"/>
<path d="M27.8202 55.8718C25.8672 54.0816 24.8907 51.4776 24.8907 48.06C24.8907 45.7001 25.3383 43.6658 26.2334 41.9976C27.1285 40.3295 28.3898 39.0682 30.0173 38.2138C31.6447 37.4 33.4756 36.9525 35.5913 36.9525C37.6257 36.9525 39.4566 37.3594 41.084 38.1731C42.7115 38.9868 43.9728 40.2074 44.9086 41.7942C45.8444 43.381 46.3326 45.2933 46.3326 47.531C46.3326 51.1522 45.3562 53.9189 43.4439 55.7904C41.4909 57.662 38.887 58.5978 35.5913 58.5978C32.3364 58.5978 29.7731 57.7027 27.8202 55.8718ZM39.66 52.861C40.6365 51.6404 41.1247 49.9316 41.1247 47.7345C41.1247 45.456 40.5958 43.7472 39.6193 42.5266C38.6428 41.306 37.3002 40.6957 35.5913 40.6957C33.8825 40.6957 32.5805 41.306 31.604 42.5266C30.6276 43.7472 30.1393 45.456 30.1393 47.7345C30.1393 49.9316 30.5869 51.6404 31.5634 52.861C32.5398 54.0816 33.8825 54.6919 35.5913 54.6919C37.3002 54.6919 38.6835 54.0816 39.66 52.861Z" fill="#111111"/>
<path d="M58.7027 57.4586C58.3772 57.7434 57.7669 57.9875 56.8718 58.2316C55.9767 58.4758 55.0002 58.5978 54.0237 58.5978C52.2742 58.5978 50.9722 58.191 50.1585 57.3365C49.3447 56.5228 48.9379 55.1801 48.9379 53.3492V29.3848H53.983V52.4948C53.983 53.8782 54.5933 54.5698 55.8953 54.5698C56.5056 54.5698 57.1566 54.4071 57.8076 54.0002L58.7027 57.4586Z" fill="#111111"/>
<path d="M61.6156 55.8718C59.6626 54.0816 58.6861 51.4776 58.6861 48.06C58.6861 45.7001 59.1337 43.6658 60.0288 41.9976C60.9239 40.3295 62.1852 39.0682 63.8127 38.2138C65.4401 37.4 67.271 36.9525 69.3867 36.9525C71.4211 36.9525 73.252 37.3594 74.8794 38.1731C76.5069 38.9868 77.7682 40.2074 78.704 41.7942C79.6398 43.381 80.128 45.2933 80.128 47.531C80.128 51.1522 79.1515 53.9189 77.2393 55.7904C75.2863 57.662 72.6824 58.5978 69.3867 58.5978C66.1318 58.5978 63.5685 57.7027 61.6156 55.8718ZM73.4554 52.861C74.4319 51.6404 74.9201 49.9316 74.9201 47.7345C74.9201 45.456 74.3912 43.7472 73.4147 42.5266C72.4382 41.306 71.0956 40.6957 69.3867 40.6957C67.6779 40.6957 66.3759 41.306 65.3994 42.5266C64.423 43.7472 63.9347 45.456 63.9347 47.7345C63.9347 49.9316 64.3823 51.6404 65.3587 52.861C66.3352 54.0816 67.6779 54.6919 69.3867 54.6919C71.0956 54.6919 72.4789 54.0816 73.4554 52.861Z" fill="#111111"/>
<rect x="76.1377" y="28.8699" width="30.7163" height="30.7163" rx="3.68678" transform="rotate(-5 76.1377 28.8699)" fill="#F06100"/>
<path d="M14.0369 14.159C17.007 14.159 19.3262 14.6879 20.9537 15.7458C22.5811 16.8036 23.3949 18.5125 23.3949 20.9537C23.3949 23.4762 22.4997 25.4292 20.7909 26.7312C19.0414 28.0331 16.7629 28.6841 13.9962 28.6841H0V0.6103H12.6943C15.2575 0.6103 17.2105 1.13923 18.5531 2.1564C19.8958 3.21425 20.5875 4.71966 20.5875 6.67262C20.5875 8.54421 19.9772 10.0089 18.8379 11.1075C17.658 12.2467 16.0712 12.9791 14.0369 13.3046V14.159ZM5.28927 4.76035V12.2874H10.9854C12.4501 12.2874 13.5487 11.9212 14.281 11.1482C15.0134 10.4158 15.3796 9.39863 15.3796 8.09665C15.3796 6.91674 15.0134 6.06232 14.3624 5.53339C13.6707 5.04515 12.5722 4.76035 11.0261 4.76035H5.28927ZM11.9212 24.412C13.8742 24.412 15.2982 24.0865 16.2747 23.3949C17.2512 22.7032 17.7394 21.6046 17.7394 20.0992C17.7394 18.7159 17.2918 17.6987 16.4374 17.0884C15.5423 16.4781 14.1997 16.1526 12.3688 16.1526H5.28927V24.412H11.9212Z" fill="#111111"/>
<path d="M47.1034 27.9925C46.7373 28.318 46.249 28.6028 45.598 28.8469C44.9471 29.091 44.2961 29.2131 43.6451 29.2131C42.3431 29.2131 41.3666 28.8876 40.6749 28.1959C39.9833 27.5449 39.6578 26.5277 39.6578 25.1444C39.6578 24.5748 39.6985 24.0052 39.8205 23.4355H38.9661C38.4779 25.3885 37.6234 26.8532 36.4435 27.789C35.2229 28.7655 33.6361 29.2131 31.6018 29.2131C29.364 29.2131 27.6145 28.6841 26.3532 27.5449C25.0919 26.4057 24.4816 24.941 24.4816 23.11C24.4816 20.8723 25.3767 19.1634 27.2076 18.0242C29.0385 16.885 31.4797 16.3154 34.5719 16.3154C36.0367 16.3154 37.42 16.4374 38.722 16.6409V15.1355C38.722 12.6129 37.2573 11.3109 34.4092 11.3109C33.1072 11.3109 32.09 11.6364 31.3577 12.2874C30.6253 12.9384 30.0964 13.8335 29.8116 15.0541L25.4174 14.0369C25.7022 12.0433 26.6787 10.4565 28.3876 9.31726C30.0964 8.17803 32.2935 7.56773 34.9788 7.56773C37.7455 7.56773 39.9019 8.21872 41.448 9.48C42.9941 10.782 43.7671 12.5722 43.7671 14.8913V22.9473C43.7671 23.6797 43.8485 24.2493 44.0926 24.6561C44.2961 25.063 44.6216 25.2664 45.0691 25.2664C45.3539 25.2664 45.7201 25.1444 46.127 24.9003L47.1034 27.9925ZM38.6406 19.3669C37.7455 19.2855 36.8504 19.2041 35.8739 19.2041C33.8803 19.2041 32.3749 19.5296 31.317 20.0992C30.2591 20.7095 29.7302 21.6046 29.7302 22.7846C29.7302 23.639 29.9743 24.29 30.544 24.7782C31.1136 25.2664 31.8459 25.5106 32.8224 25.5106C36.2401 25.5106 38.1931 23.4762 38.6406 19.3669Z" fill="#111111"/>
<path d="M62.8457 28.6841L55.9696 19.8144L53.4878 22.1336L53.9009 29.3848H48.8557L48.4426 0H53.4878V10.2937C53.4878 13.3046 53.2843 16.1119 52.9588 18.7973H53.6505C54.627 16.5595 55.929 14.6879 57.4751 13.1418L62.6016 8.09665H68.3384L59.3466 16.6002L69.1928 28.6841H62.8457Z" fill="#111111"/>
<path d="M71.539 27.7077C69.9115 26.6905 68.935 25.2258 68.6909 23.2728L72.7189 22.2149C73.0851 24.3307 74.8346 25.3478 77.9268 25.3478C79.1881 25.3478 80.2053 25.1444 80.9783 24.6968C81.7513 24.2493 82.1582 23.5576 82.1582 22.6218C82.1582 21.9708 81.9141 21.4419 81.4665 21.0757C80.9783 20.7095 80.3273 20.4247 79.5136 20.2213C78.6592 20.0585 77.4386 19.8551 75.8111 19.6517C73.6547 19.4076 71.9458 18.8786 70.6846 17.9835C69.4233 17.1291 68.813 15.7458 68.813 13.7928C68.813 11.9619 69.5453 10.4565 71.0914 9.31726C72.5968 8.17803 74.7532 7.56773 77.6013 7.56773C80.2866 7.56773 82.3617 8.09665 83.9077 9.07314C85.4132 10.0903 86.3083 11.5957 86.5931 13.5487L82.5651 14.5658C82.321 13.4673 81.8327 12.6536 81.0597 12.084C80.2459 11.555 79.1474 11.2702 77.6827 11.2702C76.4214 11.2702 75.4449 11.4737 74.7125 11.8805C73.9802 12.2874 73.6547 12.857 73.6547 13.5894C73.6547 14.2403 73.8988 14.7693 74.4277 15.0948C74.9567 15.461 75.6077 15.7051 76.3807 15.8271C77.1537 15.9899 78.293 16.1119 79.8391 16.234C82.0768 16.4781 83.8264 17.007 85.1283 17.9022C86.3896 18.7973 87.0406 20.262 87.0406 22.2963C87.0406 24.4934 86.1862 26.2022 84.4774 27.4228C82.7685 28.6434 80.6121 29.2131 77.9675 29.2131C75.2822 29.2131 73.1665 28.7248 71.539 27.7077Z" fill="#111111"/>
<path d="M91.4876 26.487C89.5346 24.6968 88.5581 22.0929 88.5581 18.6752C88.5581 16.3154 89.0057 14.281 89.9008 12.6129C90.7959 10.9447 92.0572 9.68344 93.6846 8.82902C95.3121 8.01528 97.143 7.56773 99.2587 7.56773C101.293 7.56773 103.124 7.9746 104.751 8.78833C106.379 9.60206 107.64 10.8227 108.576 12.4094C109.512 13.9962 110 15.9085 110 18.1463C110 21.7674 109.024 24.5341 107.111 26.4057C105.158 28.2773 102.554 29.2131 99.2587 29.2131C96.0038 29.2131 93.4405 28.3179 91.4876 26.487Z" fill="#111111"/>
<path d="M83.5287 41.9254L81.7356 40.1104L81.2032 40.7255L81.325 42.1182L80.47 42.193L79.9264 35.9787L80.7814 35.9039L80.9965 38.3631C81.0459 38.9273 81.0665 39.4673 81.076 39.9816L81.2434 39.967C81.4019 39.5445 81.6267 39.1696 81.9178 38.8421L83.0373 37.5273L84.051 37.4386L82.2849 39.485L84.6393 41.8282L83.5287 41.9254ZM84.5754 36.4424C84.4692 36.3451 84.4135 36.2167 84.3981 36.0404C84.3842 35.8818 84.4167 35.7457 84.5044 35.6314C84.5833 35.5179 84.7197 35.4527 84.9137 35.4358C85.09 35.4203 85.2356 35.4609 85.3418 35.5582C85.448 35.6555 85.5125 35.7831 85.5264 35.9417C85.5418 36.118 85.5005 36.2549 85.4216 36.3683C85.3339 36.4826 85.1975 36.5478 85.0124 36.564C84.8185 36.581 84.6728 36.5404 84.5754 36.4424ZM85.8897 41.7188L85.0347 41.7936L84.6491 37.3863L85.5041 37.3115L85.8897 41.7188ZM89.65 35.128L90.505 35.0532L91.0487 41.2674L90.3612 41.3276L90.1448 40.1741L89.9773 40.1887C89.8222 41.055 89.3391 41.5236 88.5106 41.5961C88.1227 41.63 87.7624 41.5727 87.4385 41.4234C87.1145 41.2741 86.8542 41.0393 86.6478 40.711C86.4422 40.3914 86.3266 39.9841 86.2835 39.4905C86.2403 38.9969 86.2914 38.5661 86.4457 38.1973C86.5999 37.8285 86.8236 37.5425 87.1167 37.3392C87.4098 37.1359 87.7362 37.0096 88.0888 36.9788C88.9262 36.9055 89.4921 37.2824 89.7938 38.0909L89.9701 38.0755C89.9654 38.0226 89.9412 37.847 89.9077 37.5657C89.8277 37.0576 89.785 36.6705 89.7634 36.4237L89.65 35.128ZM89.5554 40.3411C89.768 40.0294 89.8567 39.622 89.8119 39.1107C89.7542 38.6539 89.5976 38.2857 89.3246 38.0076C89.0516 37.7295 88.73 37.6066 88.3421 37.6405C87.9455 37.6752 87.6413 37.8529 87.4295 38.1734C87.2089 38.4947 87.129 38.9013 87.1737 39.4126C87.2169 39.9062 87.3654 40.284 87.6185 40.5372C87.8716 40.7904 88.2181 40.8933 88.6412 40.8563C89.0291 40.8224 89.3341 40.6536 89.5554 40.3411ZM94.6496 36.5114L95.5046 36.4366L95.8902 40.8439L95.2027 40.904L95.0215 39.7474L94.8541 39.7621C94.7558 40.1615 94.5888 40.487 94.3621 40.7377C94.1265 40.9893 93.8192 41.1316 93.4402 41.1648C92.9995 41.2034 92.6361 41.1108 92.35 40.8871C92.064 40.6635 91.9017 40.3313 91.8632 39.8905L91.5909 36.779L92.4459 36.7042L92.695 39.5513C92.7213 39.851 92.8126 40.0828 92.9851 40.2276C93.1585 40.3812 93.3769 40.442 93.6502 40.4181C93.9058 40.3957 94.1273 40.2875 94.3138 40.0847C94.5004 39.8819 94.6367 39.6123 94.722 39.2674C94.7992 38.932 94.8285 38.5564 94.793 38.1509L94.6496 36.5114ZM98.7474 40.4962C98.6815 40.5553 98.5715 40.6182 98.3983 40.6689C98.2259 40.7283 98.0511 40.7614 97.8572 40.7784C97.5134 40.8084 97.2597 40.7507 97.0864 40.5971C96.913 40.4435 96.8106 40.186 96.7797 39.8334L96.317 34.5447L97.172 34.4699L97.6216 39.6088C97.6479 39.9085 97.802 40.046 98.0929 40.0205C98.2339 40.0082 98.3719 39.9606 98.506 39.8689L98.7474 40.4962ZM84.7037 43.8841C85.0726 44.2426 85.2895 44.7921 85.3542 45.5325C85.3974 46.0261 85.3455 46.4481 85.2089 46.8154C85.0723 47.1826 84.867 47.4759 84.6011 47.6857C84.3264 47.8963 84.008 48.0129 83.6554 48.0438C83.2499 48.0793 82.8881 48.0043 82.5779 47.8094C82.2597 47.6241 82.0204 47.3253 81.852 46.9225L81.7021 46.9357C81.7725 47.4358 81.8387 47.9896 81.8912 48.5889L82.0022 49.8582L81.1472 49.933L80.6074 43.7628L81.2949 43.7027L81.5362 44.8362L81.6861 44.8231C81.7843 44.4237 81.9689 44.0967 82.2493 43.8501C82.5209 43.6043 82.8723 43.4581 83.3042 43.4203C83.8683 43.371 84.3349 43.5255 84.7037 43.8841ZM84.2419 46.8289C84.4288 46.5283 84.5087 46.1217 84.4647 45.6192C84.3714 44.5527 83.9013 44.052 83.0727 44.1245C82.7906 44.1492 82.5596 44.2493 82.3604 44.4089C82.1612 44.5684 82.0114 44.7858 81.9184 45.0426C81.8254 45.2994 81.7972 45.5861 81.8234 45.8858C81.8651 46.3618 82.0224 46.7389 82.2939 46.9993C82.5662 47.2686 82.9135 47.3804 83.3277 47.3441C83.742 47.3079 84.047 47.1391 84.2419 46.8289ZM90.5827 47.2157C90.5168 47.2747 90.4332 47.3353 90.3137 47.3902C90.1949 47.4539 90.0731 47.4823 89.9673 47.4916C89.7028 47.5147 89.4939 47.4619 89.3398 47.3244C89.1864 47.1957 89.0959 46.9727 89.0696 46.673C89.0588 46.5496 89.0561 46.4166 89.0717 46.2909L88.8954 46.3063C88.8282 46.7563 88.6797 47.0891 88.4506 47.3134C88.2135 47.5473 87.8782 47.6743 87.4463 47.7121C86.9615 47.7545 86.5725 47.6731 86.2776 47.4502C85.9739 47.2281 85.814 46.9223 85.78 46.5345C85.7384 46.0585 85.9007 45.6801 86.2669 45.3994C86.6332 45.1186 87.1425 44.9497 87.7947 44.8927C88.0944 44.8664 88.4229 44.8644 88.7625 44.8879L88.7309 44.5265C88.6792 43.936 88.2916 43.6679 87.5864 43.7296C87.2691 43.7573 87.0204 43.859 86.8564 44.0155C86.6925 44.172 86.5795 44.4039 86.5337 44.6921L85.8188 44.5415C85.8347 44.1138 86.0089 43.7699 86.3414 43.5099C86.6652 43.2506 87.0951 43.0886 87.6416 43.0408C88.1881 42.993 88.6404 43.0867 88.9897 43.3226C89.339 43.5585 89.5396 43.9229 89.5812 44.3989L89.744 46.2587C89.7602 46.4438 89.7901 46.5833 89.8523 46.6845C89.9144 46.7856 89.9888 46.8235 90.0946 46.8143C90.1651 46.8081 90.2421 46.7747 90.3336 46.7045L90.5827 47.2157ZM88.7973 45.4889C88.4953 45.4887 88.2557 45.4918 88.0706 45.508C87.5946 45.5497 87.2394 45.6518 86.9954 45.8064C86.7513 45.961 86.6456 46.1745 86.6688 46.439C86.6857 46.6329 86.7605 46.7773 86.902 46.8715C87.0443 46.9746 87.234 47.0112 87.472 46.9904C88.327 46.9156 88.7717 46.4148 88.7973 45.4889ZM91.257 47.0679C90.9036 46.8856 90.6746 46.6036 90.5863 46.2028L91.2377 45.9326C91.3682 46.4097 91.8033 46.6115 92.5349 46.5475C92.8346 46.5213 93.068 46.4475 93.2519 46.316C93.4278 46.194 93.5101 46.0181 93.49 45.7889C93.4761 45.6302 93.4117 45.5026 93.307 45.423C93.2023 45.3433 93.0551 45.2851 92.8573 45.258C92.6596 45.2309 92.3913 45.21 92.0356 45.2056C91.555 45.1943 91.1748 45.1121 90.8941 44.9501C90.6054 44.7978 90.447 44.5096 90.4108 44.0953C90.3776 43.7163 90.5005 43.3947 90.797 43.1289C91.0847 42.864 91.5146 42.702 92.0875 42.6519C92.6164 42.6056 93.0488 42.6744 93.3846 42.8581C93.7204 43.0419 93.9318 43.3254 94.0282 43.7167L93.3768 43.9868C93.227 43.4937 92.8168 43.272 92.1381 43.3314C91.8296 43.3584 91.5962 43.4321 91.4284 43.5444C91.2606 43.6568 91.1936 43.8048 91.2098 43.9899C91.2237 44.1486 91.2962 44.2666 91.4265 44.3351C91.5576 44.4125 91.7033 44.453 91.8819 44.464C92.0517 44.4758 92.3008 44.4807 92.6381 44.4778C93.1187 44.4891 93.5078 44.5705 93.798 44.7405C94.0882 44.9105 94.2562 45.2067 94.2948 45.6474C94.3349 46.1058 94.1902 46.4826 93.8688 46.7683C93.5386 47.0548 93.1175 47.216 92.5974 47.2615C92.0509 47.3093 91.6105 47.2501 91.257 47.0679ZM99.4881 46.4365C99.4223 46.4956 99.3387 46.5562 99.2192 46.6111C99.1004 46.6748 98.9786 46.7032 98.8728 46.7124C98.6083 46.7356 98.3994 46.6828 98.2453 46.5453C98.0919 46.4166 98.0014 46.1936 97.9751 45.8939C97.9643 45.7705 97.9616 45.6375 97.9772 45.5118L97.8009 45.5272C97.7337 45.9772 97.5852 46.3099 97.3561 46.5343C97.119 46.7682 96.7837 46.8952 96.3518 46.933C95.867 46.9754 95.4779 46.894 95.1831 46.6711C94.8794 46.4489 94.7195 46.1432 94.6855 45.7553C94.6439 45.2794 94.8062 44.901 95.1724 44.6203C95.5387 44.3395 96.048 44.1706 96.7002 44.1135C96.9999 44.0873 97.3284 44.0852 97.668 44.1088L97.6363 43.7474C97.5847 43.1568 97.1971 42.8888 96.4919 42.9505C96.1746 42.9782 95.9259 43.0799 95.7619 43.2364C95.598 43.3928 95.485 43.6248 95.4392 43.913L94.7243 43.7624C94.7402 43.3346 94.9144 42.9908 95.2469 42.7307C95.5707 42.4715 96.0006 42.3095 96.5471 42.2617C97.0936 42.2139 97.5459 42.3076 97.8952 42.5435C98.2445 42.7794 98.4451 43.1437 98.4867 43.6197L98.6495 45.4796C98.6656 45.6647 98.6956 45.8042 98.7578 45.9053C98.8199 46.0065 98.8943 46.0444 99 46.0351C99.0706 46.029 99.1476 45.9956 99.2391 45.9254L99.4881 46.4365ZM97.7028 44.7097C97.4008 44.7095 97.1612 44.7127 96.9761 44.7289C96.5001 44.7706 96.1449 44.8727 95.9008 45.0273C95.6568 45.1819 95.5511 45.3954 95.5743 45.6598C95.5912 45.8537 95.666 45.9982 95.8075 46.0924C95.9498 46.1954 96.1395 46.2321 96.3775 46.2113C97.2325 46.1365 97.6772 45.6357 97.7028 44.7097ZM102.523 42.0053L102.379 42.8884C102.311 42.8233 102.208 42.7613 102.078 42.7015C101.949 42.6418 101.804 42.6189 101.655 42.632C101.408 42.6536 101.205 42.7691 101.026 42.9623C100.848 43.1644 100.713 43.4427 100.638 43.8046C100.563 44.1664 100.547 44.5941 100.59 45.0877L100.709 46.4452L99.8541 46.52L99.4685 42.1127L100.156 42.0525L100.366 43.4375L100.534 43.4229C100.548 42.9775 100.658 42.6126 100.863 42.3105C101.058 42.0091 101.346 41.8419 101.716 41.8095C102.033 41.7817 102.296 41.8475 102.523 42.0053Z" fill="white"/>
<path d="M93.1133 19.8101C93.6425 21.369 95.5925 24.565 99.1593 24.877C102.726 25.1891 104.871 22.3514 105.498 20.8936" stroke="#FEBE33" stroke-width="1.47471" stroke-linecap="round"/>
</svg>
