<svg width="200" height="109" viewBox="0 0 200 109" fill="none" xmlns="http://www.w3.org/2000/svg">
<path d="M7.64416 102.103C3.57549 99.1441 1.13429 94.9274 0.394531 89.6012L8.53187 86.7901C9.12368 90.5629 10.6772 93.5219 13.1923 95.5932C15.6336 97.7385 18.7405 98.7742 22.5133 98.7742C25.9162 98.7742 28.6533 98.1084 30.6506 96.7768C32.648 95.4453 33.6837 93.5959 33.6837 91.1547C33.6837 89.3793 33.0918 87.8997 32.0562 86.8641C30.9465 85.8284 29.467 85.0887 27.5437 84.5708C25.6203 84.127 22.9572 83.6831 19.7022 83.2393C13.9321 82.4995 9.34561 81.02 5.94272 78.8007C2.53983 76.6554 0.912362 73.3265 0.912362 68.74C0.912362 65.707 1.7261 63.0439 3.42754 60.7506C5.05501 58.4574 7.42224 56.6819 10.4552 55.4983C13.4143 54.3147 16.8911 53.6489 20.8858 53.6489C27.3957 53.6489 32.4261 54.9805 35.9029 57.6436C39.3798 60.3068 41.3771 64.2275 41.821 69.4058L33.8316 71.3292C33.1658 67.9263 31.9082 65.3371 29.9849 63.6357C28.0615 61.9342 24.9545 61.0465 20.7379 61.0465C17.6309 61.0465 15.1157 61.6383 13.1923 62.8219C11.269 64.0055 10.3073 65.633 10.3073 67.7043C10.3073 69.4798 10.8991 70.8113 12.1567 71.847C13.3403 72.8826 14.9678 73.6224 16.9651 74.0663C18.9625 74.5841 21.6996 75.0279 25.1025 75.4718C28.7273 76.0636 31.8343 76.8034 34.3494 77.6911C36.8646 78.6528 38.9359 80.1323 40.5634 82.1296C42.1909 84.2009 43.0046 86.8641 43.0046 90.267C43.0046 93.6699 42.1169 96.5549 40.3415 98.9961C38.5661 101.511 36.1249 103.361 33.0179 104.618C29.9109 105.95 26.434 106.542 22.5873 106.542C16.6692 106.542 11.6389 105.062 7.64416 102.103Z" fill="white"/>
<path d="M50.5825 101.585C47.0317 98.3303 45.2562 93.5959 45.2562 87.3819C45.2562 83.0913 46.07 79.3925 47.6974 76.3595C49.3249 73.3265 51.6182 71.0333 54.5772 69.4798C57.5362 68.0002 60.8651 67.1865 64.7119 67.1865C68.4107 67.1865 71.7396 67.9263 74.6986 69.4058C77.6576 70.8853 79.9509 73.1046 81.6524 75.9896C83.3538 78.8747 84.2415 82.3516 84.2415 86.4202C84.2415 93.0041 82.4661 98.0344 78.9892 101.437C75.4384 104.84 70.7039 106.542 64.7119 106.542C58.7938 106.542 54.1333 104.914 50.5825 101.585ZM72.1095 96.1111C73.8849 93.8918 74.7726 90.7848 74.7726 86.7901C74.7726 82.6475 73.8109 79.5405 72.0355 77.3212C70.2601 75.1019 67.8189 73.9923 64.7119 73.9923C61.6049 73.9923 59.2377 75.1019 57.4623 77.3212C55.6868 79.5405 54.7991 82.6475 54.7991 86.7901C54.7991 90.7848 55.6129 93.8918 57.3883 96.1111C59.1637 98.3303 61.6049 99.44 64.7119 99.44C67.8189 99.44 70.334 98.3303 72.1095 96.1111Z" fill="white"/>
<path d="M106.732 104.47C106.141 104.988 105.031 105.432 103.404 105.876C101.776 106.32 100.001 106.542 98.2252 106.542C95.0443 106.542 92.6771 105.802 91.1975 104.248C89.718 102.769 88.9783 100.328 88.9783 96.9988V53.427H98.1513V95.4453C98.1513 97.9604 99.2609 99.218 101.628 99.218C102.738 99.218 103.921 98.9221 105.105 98.1824L106.732 104.47Z" fill="white"/>
<path d="M112.029 101.585C108.478 98.3303 106.702 93.5959 106.702 87.3819C106.702 83.0913 107.516 79.3925 109.144 76.3595C110.771 73.3265 113.064 71.0333 116.023 69.4798C118.982 68.0002 122.311 67.1865 126.158 67.1865C129.857 67.1865 133.186 67.9263 136.145 69.4058C139.104 70.8853 141.397 73.1046 143.099 75.9896C144.8 78.8747 145.688 82.3516 145.688 86.4202C145.688 93.0041 143.912 98.0344 140.435 101.437C136.885 104.84 132.15 106.542 126.158 106.542C120.24 106.542 115.58 104.914 112.029 101.585ZM133.556 96.1111C135.331 93.8918 136.219 90.7848 136.219 86.7901C136.219 82.6475 135.257 79.5405 133.482 77.3212C131.706 75.1019 129.265 73.9923 126.158 73.9923C123.051 73.9923 120.684 75.1019 118.908 77.3212C117.133 79.5405 116.245 82.6475 116.245 86.7901C116.245 90.7848 117.059 93.8918 118.834 96.1111C120.61 98.3303 123.051 99.44 126.158 99.44C129.265 99.44 131.78 98.3303 133.556 96.1111Z" fill="white"/>
<rect x="138.434" y="52.4915" width="55.8478" height="55.8478" rx="5" transform="rotate(-5 138.434 52.4915)" fill="#F06100"/>
<path d="M25.5217 25.7436C30.9219 25.7436 35.1385 26.7053 38.0976 28.6286C41.0566 30.552 42.5361 33.659 42.5361 38.0976C42.5361 42.6841 40.9086 46.2349 37.8016 48.6021C34.6207 50.9693 30.478 52.153 25.4477 52.153H0V1.10964H23.0805C27.7409 1.10964 31.2918 2.07132 33.733 3.92072C36.1742 5.84409 37.4318 8.5812 37.4318 12.132C37.4318 15.5349 36.3221 18.1981 34.2508 20.1954C32.1055 22.2667 29.2205 23.5983 25.5217 24.1901V25.7436ZM9.61686 8.65517V22.3407H19.9735C22.6366 22.3407 24.6339 21.6749 25.9655 20.2694C27.2971 18.9378 27.9629 17.0884 27.9629 14.7212C27.9629 12.5759 27.2971 11.0224 26.1135 10.0607C24.8559 9.173 22.8585 8.65517 20.0474 8.65517H9.61686ZM21.6749 44.3855C25.2258 44.3855 27.8149 43.7937 29.5903 42.5361C31.3657 41.2785 32.2535 39.2812 32.2535 36.5441C32.2535 34.0289 31.4397 32.1795 29.8862 31.0699C28.2588 29.9602 25.8176 29.3684 22.4887 29.3684H9.61686V44.3855H21.6749Z" fill="white"/>
<path d="M85.6426 50.8954C84.9768 51.4872 84.0891 52.005 82.9055 52.4489C81.7219 52.8927 80.5383 53.1146 79.3547 53.1146C76.9875 53.1146 75.212 52.5228 73.9544 51.2653C72.6969 50.0816 72.105 48.2322 72.105 45.7171C72.105 44.6814 72.179 43.6457 72.401 42.6101H70.8475C69.9598 46.1609 68.4063 48.8241 66.261 50.5255C64.0417 52.3009 61.1566 53.1146 57.4578 53.1146C53.3892 53.1146 50.2082 52.153 47.9149 50.0816C45.6217 48.0103 44.5121 45.3472 44.5121 42.0183C44.5121 37.9496 46.1395 34.8426 49.4684 32.7713C52.7974 30.7 57.2359 29.6643 62.8581 29.6643C65.5212 29.6643 68.0364 29.8862 70.4036 30.2561V27.519C70.4036 22.9325 67.7405 20.5653 62.5622 20.5653C60.1949 20.5653 58.3455 21.1571 57.014 22.3407C55.6824 23.5243 54.7207 25.1518 54.2029 27.3711L46.2135 25.5217C46.7313 21.8968 48.5068 19.0118 51.6137 16.9405C54.7207 14.8691 58.7154 13.7595 63.5978 13.7595C68.6282 13.7595 72.5489 14.9431 75.36 17.2364C78.1711 19.6036 79.5766 22.8585 79.5766 27.0752V41.7224C79.5766 43.0539 79.7246 44.0896 80.1684 44.8294C80.5383 45.5691 81.1301 45.939 81.9438 45.939C82.4617 45.939 83.1274 45.7171 83.8672 45.2732L85.6426 50.8954ZM70.2556 35.2125C68.6282 35.0645 67.0007 34.9166 65.2253 34.9166C61.6005 34.9166 58.8634 35.5084 56.94 36.5441C55.0166 37.6537 54.0549 39.2812 54.0549 41.4265C54.0549 42.98 54.4988 44.1636 55.5345 45.0513C56.5701 45.939 57.9017 46.3828 59.6771 46.3828C65.8911 46.3828 69.4419 42.6841 70.2556 35.2125Z" fill="white"/>
<path d="M114.265 52.153L101.763 36.0262L97.2505 40.2429L98.0016 53.427H88.8286L88.0775 0H97.2505V18.7159C97.2505 24.1901 96.8806 29.2944 96.2888 34.1768H97.5464C99.3218 30.1082 101.689 26.7053 104.5 23.8942L113.821 14.7212H124.252L107.903 30.1821L125.805 52.153H114.265Z" fill="white"/>
<path d="M130.071 50.3775C127.112 48.5282 125.336 45.865 124.893 42.3142L132.216 40.3908C132.882 44.2375 136.063 46.0869 141.685 46.0869C143.978 46.0869 145.828 45.7171 147.233 44.9033C148.639 44.0896 149.379 42.832 149.379 41.1306C149.379 39.947 148.935 38.9853 148.121 38.3195C147.233 37.6537 146.05 37.1359 144.57 36.766C143.017 36.4701 140.797 36.1002 137.838 35.7303C133.918 35.2865 130.811 34.3248 128.517 32.6973C126.224 31.1438 125.114 28.6286 125.114 25.0778C125.114 21.7489 126.446 19.0118 129.257 16.9405C131.994 14.8691 135.915 13.7595 141.093 13.7595C145.976 13.7595 149.748 14.7212 152.56 16.4966C155.297 18.346 156.924 21.0831 157.442 24.634L150.118 26.4833C149.674 24.486 148.787 23.0065 147.381 21.9708C145.902 21.0091 143.904 20.4913 141.241 20.4913C138.948 20.4913 137.173 20.8612 135.841 21.6009C134.509 22.3407 133.918 23.3764 133.918 24.7079C133.918 25.8915 134.361 26.8532 135.323 27.445C136.285 28.1108 137.468 28.5547 138.874 28.7766C140.28 29.0725 142.351 29.2944 145.162 29.5164C149.231 29.9602 152.412 30.9219 154.779 32.5494C157.072 34.1768 158.256 36.84 158.256 40.5388C158.256 44.5335 156.702 47.6404 153.595 49.8597C150.488 52.079 146.567 53.1146 141.759 53.1146C136.877 53.1146 133.03 52.2269 130.071 50.3775Z" fill="white"/>
<path d="M166.341 48.1583C162.79 44.9033 161.015 40.1689 161.015 33.9549C161.015 29.6643 161.828 25.9655 163.456 22.9325C165.083 19.8995 167.377 17.6063 170.336 16.0528C173.295 14.5732 176.624 13.7595 180.47 13.7595C184.169 13.7595 187.498 14.4993 190.457 15.9788C193.416 17.4583 195.709 19.6776 197.411 22.5626C199.112 25.4477 200 28.9246 200 32.9932C200 39.5771 198.225 44.6074 194.748 48.0103C191.197 51.4132 186.462 53.1146 180.47 53.1146C174.552 53.1146 169.892 51.4872 166.341 48.1583Z" fill="white"/>
<path d="M152.76 77.2452L149.112 73.5531L148.029 74.8042L148.277 77.6374L146.537 77.7896L145.431 65.1479L147.171 64.9957L147.608 69.9986C147.709 71.1462 147.751 72.2447 147.77 73.291L148.111 73.2612C148.433 72.4019 148.89 71.6391 149.483 70.973L151.76 68.2983L153.822 68.1179L150.229 72.2809L155.019 77.0475L152.76 77.2452ZM154.889 66.0912C154.673 65.8933 154.56 65.6321 154.528 65.2735C154.5 64.9507 154.566 64.6739 154.745 64.4415C154.905 64.2106 155.183 64.0779 155.577 64.0434C155.936 64.012 156.232 64.0945 156.448 64.2925C156.664 64.4904 156.795 64.7499 156.824 65.0727C156.855 65.4313 156.771 65.7097 156.61 65.9406C156.432 66.173 156.154 66.3057 155.778 66.3387C155.383 66.3732 155.087 66.2907 154.889 66.0912ZM157.563 76.825L155.823 76.9772L155.039 68.0114L156.778 67.8593L157.563 76.825ZM165.212 63.4173L166.952 63.2651L168.058 75.9068L166.659 76.0292L166.219 73.6826L165.878 73.7124C165.562 75.4746 164.58 76.4279 162.894 76.5754C162.105 76.6444 161.372 76.5278 160.713 76.2241C160.054 75.9204 159.525 75.4427 159.105 74.7748C158.687 74.1248 158.451 73.2961 158.364 72.2919C158.276 71.2878 158.38 70.4114 158.694 69.6612C159.007 68.911 159.462 68.3291 160.059 67.9156C160.655 67.502 161.319 67.2452 162.036 67.1824C163.74 67.0334 164.891 67.8 165.505 69.4447L165.863 69.4134C165.854 69.3058 165.805 68.9487 165.736 68.3765C165.574 67.3427 165.487 66.5553 165.443 66.0532L165.212 63.4173ZM165.02 74.0224C165.452 73.3883 165.633 72.5594 165.542 71.5194C165.424 70.5901 165.106 69.841 164.55 69.2753C163.995 68.7095 163.341 68.4596 162.552 68.5286C161.745 68.5992 161.126 68.9605 160.695 69.6126C160.246 70.2662 160.084 71.0935 160.175 72.1335C160.263 73.1377 160.565 73.9063 161.08 74.4213C161.594 74.9364 162.299 75.1458 163.16 75.0705C163.949 75.0015 164.569 74.6581 165.02 74.0224ZM175.383 66.2316L177.122 66.0794L177.907 75.0451L176.508 75.1675L176.139 72.8147L175.799 72.8445C175.599 73.657 175.259 74.3191 174.798 74.8293C174.319 75.341 173.694 75.6306 172.923 75.698C172.026 75.7765 171.287 75.5882 170.705 75.1331C170.123 74.6781 169.793 74.0023 169.714 73.1058L169.161 66.7759L170.9 66.6238L171.407 72.4156C171.46 73.0253 171.646 73.4969 171.997 73.7914C172.349 74.1039 172.794 74.2276 173.35 74.179C173.87 74.1335 174.32 73.9134 174.7 73.5008C175.079 73.0881 175.357 72.5399 175.53 71.8381C175.687 71.1558 175.747 70.3917 175.675 69.5668L175.383 66.2316ZM183.719 74.3379C183.585 74.458 183.361 74.586 183.009 74.6891C182.658 74.8101 182.303 74.8774 181.908 74.9119C181.209 74.9731 180.693 74.8556 180.34 74.5431C179.987 74.2307 179.779 73.7069 179.716 72.9896L178.775 62.2307L180.514 62.0785L181.429 72.5326C181.482 73.1423 181.796 73.422 182.388 73.3702C182.674 73.3451 182.955 73.2483 183.228 73.0618L183.719 74.3379ZM155.219 82.021C155.97 82.7504 156.411 83.8682 156.543 85.3744C156.63 86.3786 156.525 87.2371 156.247 87.9841C155.969 88.7312 155.551 89.3279 155.01 89.7546C154.452 90.183 153.804 90.4203 153.087 90.4831C152.262 90.5553 151.526 90.4028 150.895 90.0063C150.247 89.6293 149.761 89.0214 149.418 88.2022L149.113 88.2288C149.256 89.2462 149.391 90.3728 149.498 91.5921L149.724 94.1742L147.984 94.3264L146.886 81.7744L148.285 81.652L148.776 83.958L149.08 83.9313C149.28 83.1188 149.656 82.4536 150.226 81.9519C150.779 81.4519 151.494 81.1544 152.372 81.0776C153.52 80.9772 154.469 81.2916 155.219 82.021ZM154.28 88.0117C154.66 87.4002 154.822 86.5729 154.733 85.5508C154.543 83.3811 153.587 82.3626 151.901 82.5101C151.327 82.5603 150.857 82.764 150.452 83.0886C150.047 83.4131 149.742 83.8553 149.553 84.3778C149.364 84.9003 149.307 85.4835 149.36 86.0932C149.445 87.0615 149.765 87.8285 150.317 88.3584C150.871 88.9062 151.577 89.1335 152.42 89.0598C153.263 88.986 153.883 88.6427 154.28 88.0117ZM167.179 88.7985C167.045 88.9186 166.875 89.0419 166.632 89.1535C166.39 89.2831 166.142 89.3409 165.927 89.3597C165.389 89.4068 164.964 89.2994 164.65 89.0197C164.338 88.7579 164.154 88.3042 164.101 87.6945C164.079 87.4435 164.073 87.1729 164.105 86.9172L163.746 86.9486C163.61 87.864 163.308 88.5409 162.842 88.9972C162.359 89.4731 161.677 89.7315 160.798 89.8084C159.812 89.8947 159.021 89.729 158.421 89.2756C157.803 88.8237 157.478 88.2017 157.409 87.4127C157.324 86.4444 157.654 85.6747 158.399 85.1036C159.144 84.5325 160.18 84.1889 161.507 84.0728C162.117 84.0195 162.785 84.0152 163.476 84.0632L163.412 83.328C163.306 82.1266 162.518 81.5812 161.083 81.7067C160.438 81.7632 159.932 81.9701 159.598 82.2884C159.265 82.6066 159.035 83.0785 158.942 83.6648L157.488 83.3584C157.52 82.4883 157.874 81.7887 158.551 81.2598C159.209 80.7324 160.084 80.4029 161.196 80.3056C162.307 80.2083 163.228 80.3989 163.938 80.8788C164.649 81.3587 165.057 82.0999 165.142 83.0682L165.473 86.8518C165.505 87.2283 165.566 87.5121 165.693 87.7179C165.819 87.9236 165.971 88.0007 166.186 87.9819C166.329 87.9694 166.486 87.9014 166.672 87.7587L167.179 88.7985ZM163.547 85.2857C162.932 85.2852 162.445 85.2917 162.068 85.3246C161.1 85.4094 160.378 85.6171 159.881 85.9316C159.385 86.2461 159.17 86.6805 159.217 87.2184C159.251 87.6129 159.403 87.9067 159.691 88.0984C159.981 88.308 160.367 88.3826 160.851 88.3403C162.59 88.1881 163.495 87.1694 163.547 85.2857ZM168.551 88.4978C167.832 88.127 167.366 87.5534 167.186 86.738L168.511 86.1884C168.777 87.159 169.662 87.5694 171.15 87.4392C171.76 87.3858 172.235 87.2359 172.609 86.9682C172.966 86.7201 173.134 86.3622 173.093 85.896C173.065 85.5732 172.934 85.3136 172.721 85.1516C172.508 84.9895 172.208 84.8712 171.806 84.816C171.404 84.7609 170.858 84.7183 170.134 84.7093C169.157 84.6864 168.383 84.5192 167.812 84.1897C167.225 83.8797 166.903 83.2936 166.829 82.4508C166.762 81.6797 167.011 81.0255 167.615 80.4848C168.2 79.9458 169.075 79.6163 170.24 79.5143C171.316 79.4202 172.196 79.5601 172.879 79.934C173.562 80.3078 173.992 80.8846 174.188 81.6805L172.863 82.2301C172.558 81.2268 171.724 80.7758 170.343 80.8966C169.715 80.9515 169.241 81.1015 168.899 81.3301C168.558 81.5587 168.422 81.8597 168.455 82.2363C168.483 82.5591 168.63 82.7991 168.895 82.9386C169.162 83.0959 169.458 83.1784 169.822 83.2008C170.167 83.2248 170.674 83.2347 171.36 83.2288C172.338 83.2517 173.129 83.4174 173.72 83.7632C174.31 84.1091 174.652 84.7116 174.73 85.6082C174.812 86.5406 174.518 87.3072 173.864 87.8884C173.192 88.4711 172.335 88.7991 171.277 88.8916C170.166 88.9889 169.27 88.8685 168.551 88.4978ZM185.295 87.2135C185.161 87.3336 184.991 87.4569 184.748 87.5685C184.506 87.6981 184.258 87.7559 184.043 87.7747C183.505 87.8218 183.08 87.7144 182.767 87.4347C182.455 87.1729 182.271 86.7192 182.217 86.1095C182.195 85.8585 182.19 85.588 182.221 85.3322L181.863 85.3636C181.726 86.279 181.424 86.9559 180.958 87.4123C180.476 87.8881 179.794 88.1465 178.915 88.2234C177.929 88.3097 177.137 88.144 176.537 87.6906C175.92 87.2387 175.594 86.6167 175.525 85.8277C175.44 84.8594 175.771 84.0897 176.516 83.5186C177.261 82.9475 178.297 82.6039 179.624 82.4878C180.233 82.4345 180.902 82.4302 181.592 82.4782L181.528 81.743C181.423 80.5416 180.634 79.9962 179.2 80.1217C178.554 80.1782 178.048 80.3851 177.715 80.7034C177.381 81.0217 177.152 81.4935 177.058 82.0798L175.604 81.7734C175.636 80.9033 175.991 80.2037 176.667 79.6748C177.326 79.1474 178.2 78.8179 179.312 78.7206C180.424 78.6234 181.344 78.8139 182.055 79.2938C182.765 79.7737 183.173 80.5149 183.258 81.4832L183.589 85.2668C183.622 85.6433 183.683 85.9271 183.809 86.1329C183.936 86.3386 184.087 86.4158 184.302 86.3969C184.446 86.3844 184.602 86.3165 184.789 86.1737L185.295 87.2135ZM181.663 83.7007C181.049 83.7002 180.561 83.7067 180.185 83.7397C179.217 83.8244 178.494 84.0321 177.997 84.3466C177.501 84.6611 177.286 85.0955 177.333 85.6334C177.368 86.0279 177.52 86.3218 177.808 86.5134C178.097 86.723 178.483 86.7976 178.967 86.7553C180.706 86.6031 181.611 85.5844 181.663 83.7007ZM191.47 78.199L191.175 79.9955C191.037 79.8631 190.827 79.7369 190.564 79.6154C190.3 79.4939 190.007 79.4473 189.702 79.4739C189.2 79.5179 188.787 79.7528 188.424 80.1459C188.062 80.557 187.787 81.1232 187.634 81.8592C187.482 82.5953 187.45 83.4655 187.537 84.4696L187.779 87.2311L186.04 87.3832L185.255 78.4175L186.654 78.2951L187.081 81.1126L187.422 81.0828C187.451 80.1768 187.675 79.4345 188.091 78.8199C188.489 78.2068 189.074 77.8666 189.827 77.8007C190.472 77.7442 191.008 77.878 191.47 78.199Z" fill="white"/>
<path d="M169.296 36.0188C170.258 38.8533 173.804 44.6641 180.289 45.2315C186.774 45.7989 190.674 40.6395 191.814 37.9888" stroke="black" stroke-width="2" stroke-linecap="round"/>
</svg>
